<svg xmlns="http://www.w3.org/2000/svg" viewBox="0 0 1200 250" width="100%" height="250">
<rect width="1200" height="250" rx="12" fill="#0B0F17" stroke="#1F2937"/>
<text x="40" y="46" font-family="ui-monospace, 'SF Mono', Menlo, Consolas, monospace" font-size="17" font-weight="700" fill="#5CF19E">$ <tspan fill="#D3DDE9">gh api users/KarimaTaira --stats</tspan></text>
<rect x="40.0" y="72" width="357.3333333333333" height="64" rx="8" fill="#111827" stroke="#1F2937"/><rect x="40.0" y="72" width="3" height="64" rx="1.5" fill="#5CF19E" opacity="0.85"/><text x="56.0" y="95" font-family="ui-monospace, 'SF Mono', Menlo, Consolas, monospace" font-size="10.5" fill="#6B7A8F" letter-spacing="1.5">PUBLIC REPOS</text><text x="56.0" y="122" font-family="ui-monospace, 'SF Mono', Menlo, Consolas, monospace" font-size="23" font-weight="700" fill="#5CF19E">12</text><rect x="413.3333333333333" y="72" width="357.3333333333333" height="64" rx="8" fill="#111827" stroke="#1F2937"/><rect x="413.3333333333333" y="72" width="3" height="64" rx="1.5" fill="#F2B84B" opacity="0.85"/><text x="429.3333333333333" y="95" font-family="ui-monospace, 'SF Mono', Menlo, Consolas, monospace" font-size="10.5" fill="#6B7A8F" letter-spacing="1.5">TOTAL STARS</text><text x="429.3333333333333" y="122" font-family="ui-monospace, 'SF Mono', Menlo, Consolas, monospace" font-size="23" font-weight="700" fill="#F2B84B">0</text><rect x="786.6666666666666" y="72" width="357.3333333333333" height="64" rx="8" fill="#111827" stroke="#1F2937"/><rect x="786.6666666666666" y="72" width="3" height="64" rx="1.5" fill="#5CF19E" opacity="0.85"/><text x="802.6666666666666" y="95" font-family="ui-monospace, 'SF Mono', Menlo, Consolas, monospace" font-size="10.5" fill="#6B7A8F" letter-spacing="1.5">FOLLOWERS</text><text x="802.6666666666666" y="122" font-family="ui-monospace, 'SF Mono', Menlo, Consolas, monospace" font-size="23" font-weight="700" fill="#5CF19E">0</text>
<text x="40" y="163" font-family="ui-monospace, 'SF Mono', Menlo, Consolas, monospace" font-size="10.5" fill="#6B7A8F" letter-spacing="1.5">LANGUAGE DISTRIBUTION</text>
<rect x="40.0" y="172" width="669.0" height="12" rx="3" fill="#5CF19E"/><rect x="712.0" y="172" width="221.0" height="12" rx="3" fill="#F2B84B"/><rect x="936.0" y="172" width="221.0" height="12" rx="3" fill="#7CC4FF"/><circle cx="45.0" cy="209" r="4.5" fill="#5CF19E"/><text x="56.0" y="213" font-family="ui-monospace, 'SF Mono', Menlo, Consolas, monospace" font-size="11.5" fill="#6B7A8F">Jupyter Notebook</text><circle cx="717.0" cy="209" r="4.5" fill="#F2B84B"/><text x="728.0" y="213" font-family="ui-monospace, 'SF Mono', Menlo, Consolas, monospace" font-size="11.5" fill="#6B7A8F">JavaScript</text><circle cx="941.0" cy="209" r="4.5" fill="#7CC4FF"/><text x="952.0" y="213" font-family="ui-monospace, 'SF Mono', Menlo, Consolas, monospace" font-size="11.5" fill="#6B7A8F">C++</text>
</svg>